<?xml version="1.0" standalone="no"?>
<!DOCTYPE svg PUBLIC "-//W3C//DTD SVG 20010904//EN"
 "http://www.w3.org/TR/2001/REC-SVG-20010904/DTD/svg10.dtd">
<svg version="1.0" xmlns="http://www.w3.org/2000/svg"
 width="1200.000000pt" height="1200.000000pt" viewBox="0 0 1200.000000 1200.000000"
 preserveAspectRatio="xMidYMid meet">
<metadata>
Created by potrace 1.14, written by Peter Selinger 2001-2017
</metadata>
<g transform="translate(0.000000,1200.000000) scale(0.100000,-0.100000)"
fill="#000000" stroke="none">
<path d="M986 11989 c-259 -27 -497 -146 -681 -340 -144 -152 -230 -317 -283
-544 -15 -64 -16 -478 -19 -5035 -3 -3308 0 -4999 7 -5068 19 -192 73 -353
172 -504 165 -252 425 -427 721 -483 70 -13 661 -15 5102 -15 4441 0 5032 2
5102 15 445 84 794 433 878 878 13 70 15 661 15 5102 0 4441 -2 5032 -15 5102
-42 223 -142 412 -304 574 -185 186 -413 293 -679 319 -121 12 -9904 11
-10016 -1z m4552 -2401 c788 -2229 959 -2711 1028 -2908 l79 -225 3 1803 2
1802 795 0 795 0 0 -4070 c0 -3249 -3 -4070 -12 -4070 -7 0 -110 11 -228 25
-403 45 -871 84 -1242 101 -80 4 -152 10 -158 14 -15 9 -159 415 -1153 3229
l-72 203 -7 -1323 c-10 -1818 -12 -2096 -19 -2103 -3 -4 -118 -13 -255 -21
-344 -21 -551 -39 -962 -81 -194 -20 -355 -35 -357 -32 -3 3 -6 1835 -7 4071
l-3 4067 801 0 801 0 171 -482z"/>
</g>
</svg>
